<svg width="880" height="1080" viewBox="0 0 880 1080" fill="none" xmlns="http://www.w3.org/2000/svg">
<g clip-path="url(#clip0_59_14)">
<path d="M720.697 -14.577L609.503 40.6746C499.763 96.1313 275.194 206.327 286.937 349.853C298.68 493.38 539.464 669.211 551.207 812.738C562.95 956.264 338.381 1066.46 228.641 1121.92L117.447 1177.17L-231.568 1127.94L-217.444 1059C-203.32 990.055 -175.071 852.169 -146.823 714.283C-118.575 576.398 -90.3263 438.512 -62.0779 300.626C-33.8296 162.74 -5.58126 24.8546 8.54291 -44.0883L22.6671 -113.031L720.697 -14.577Z" fill="#35FF69"/>
<path d="M530.627 -85.4555L452.238 -23.7174C374.941 38.1097 216.525 161.453 235.526 299.245C254.526 437.038 445.484 588.837 464.485 726.63C483.485 864.423 325.07 987.766 247.772 1049.59L169.384 1111.33L-92.6463 1089.99L-87.1345 1022.32C-81.6226 954.642 -70.5989 819.294 -59.5752 683.946C-48.5515 548.599 -37.5277 413.251 -26.504 277.904C-15.4803 142.556 -4.45659 7.20871 1.05527 -60.4651L6.56713 -128.139L530.627 -85.4555Z" fill="#FFFF58"/>
</g>
<defs>
<clipPath id="clip0_59_14">
<rect width="1222.16" height="876.325" fill="white" transform="translate(880 -57) rotate(94.6563)"/>
</clipPath>
</defs>
</svg>
